<?xml version="1.0" standalone="no"?>
<!DOCTYPE svg PUBLIC "-//W3C//DTD SVG 20010904//EN"
 "http://www.w3.org/TR/2001/REC-SVG-20010904/DTD/svg10.dtd">
<svg version="1.0" xmlns="http://www.w3.org/2000/svg"
 width="700.000000pt" height="700.000000pt" viewBox="0 0 700.000000 700.000000"
 preserveAspectRatio="xMidYMid meet">
<metadata>
Created by potrace 1.14, written by Peter Selinger 2001-2017
</metadata>
<g transform="translate(0.000000,700.000000) scale(0.100000,-0.100000)"
fill="#000000" stroke="none">
<path d="M3298 6705 c-2 -2 -37 -6 -80 -9 -42 -4 -91 -9 -110 -11 -18 -3 -53
-8 -78 -11 -25 -3 -76 -12 -115 -19 -38 -8 -81 -16 -95 -19 -39 -6 -189 -45
-255 -66 -241 -74 -513 -197 -732 -329 -440 -267 -834 -666 -1094 -1106 -212
-360 -367 -799 -415 -1180 -2 -22 -7 -51 -9 -65 -26 -160 -26 -640 -1 -767 3
-12 7 -48 11 -80 3 -32 8 -65 10 -73 2 -8 7 -34 10 -57 10 -71 64 -283 101
-398 114 -351 315 -729 525 -989 159 -197 307 -350 459 -476 41 -34 84 -70 96
-80 12 -9 72 -53 135 -97 198 -140 448 -275 669 -361 70 -27 197 -70 315 -105
79 -24 255 -62 330 -72 22 -3 58 -8 80 -12 22 -3 51 -7 65 -9 185 -25 606 -25
760 0 14 3 48 7 75 11 277 33 635 141 930 281 146 69 418 230 504 299 9 8 63
51 121 96 123 97 356 326 462 455 250 304 440 643 563 1006 39 115 91 302 101
363 3 22 8 43 10 46 3 5 15 74 29 174 4 22 8 51 10 64 26 154 26 609 0 781 -2
14 -7 50 -10 80 -4 30 -8 57 -10 60 -2 3 -6 24 -9 46 -25 163 -110 454 -188
644 -412 993 -1284 1712 -2331 1924 -110 22 -150 29 -252 41 -16 2 -55 7 -85
10 -55 7 -496 15 -502 10z m417 -589 c79 -8 209 -24 246 -31 13 -3 47 -9 74
-15 28 -6 59 -12 70 -14 73 -14 277 -81 396 -129 415 -170 816 -477 1079 -826
14 -18 34 -45 46 -59 89 -116 228 -364 297 -532 79 -190 149 -442 171 -610 3
-25 8 -54 10 -65 18 -90 25 -420 12 -545 -3 -36 -9 -90 -12 -120 -4 -45 -44
-260 -59 -320 -20 -85 -85 -272 -125 -367 -187 -436 -470 -799 -840 -1077
-147 -111 -232 -164 -395 -246 -208 -106 -483 -202 -665 -234 -19 -3 -46 -8
-59 -11 -254 -49 -597 -51 -884 -4 -177 29 -403 89 -502 133 -16 8 -41 17 -55
21 -42 12 -303 141 -366 181 -88 55 -167 107 -184 121 -176 138 -240 193 -339
293 -353 357 -597 810 -699 1300 -11 52 -23 118 -27 145 -3 28 -8 57 -10 65
-23 89 -23 545 1 663 2 12 7 42 10 67 3 25 15 86 25 135 11 50 22 101 25 115
11 56 70 232 109 330 99 246 234 473 414 695 53 65 249 266 302 310 104 85
134 108 209 161 318 222 642 359 1020 433 25 5 69 12 99 16 30 4 63 8 74 11
11 2 61 6 111 10 50 3 92 7 93 8 5 5 262 -1 328 -8z"/>
<path d="M3407 5526 c-88 -32 -163 -110 -187 -196 -5 -19 -10 -110 -10 -202
l0 -168 -37 0 c-156 -1 -383 -9 -408 -14 -129 -28 -243 -75 -341 -142 -236
-162 -376 -422 -378 -704 -1 -112 6 -178 23 -222 6 -16 9 -28 6 -28 -8 0 47
-136 77 -190 62 -112 168 -229 268 -297 90 -61 230 -119 330 -138 19 -3 44 -8
55 -10 11 -2 107 -4 213 -4 l192 -1 0 -290 c0 -159 -3 -291 -7 -291 -5 -1
-215 -2 -468 -3 l-460 -2 -56 -26 c-231 -106 -235 -417 -7 -526 l60 -29 437
-1 c240 -1 450 -1 468 -2 l31 0 4 -187 c3 -187 3 -188 32 -241 30 -54 73 -94
136 -128 49 -26 190 -27 242 0 53 25 111 83 139 136 22 42 24 57 27 233 l4
187 51 0 c278 2 366 8 452 29 155 40 296 120 411 236 455 461 262 1242 -356
1443 -106 34 -174 42 -372 42 l-188 0 2 292 3 293 460 0 c507 1 509 2 591 64
106 81 140 231 81 353 -31 64 -80 111 -146 142 -44 20 -62 21 -496 23 -247 1
-460 2 -472 3 -21 0 -21 3 -25 188 -3 185 -3 188 -32 239 -68 123 -222 184
-349 139z m-204 -1155 c4 0 6 -130 5 -288 l-3 -288 -180 0 c-171 0 -183 1
-230 25 -182 89 -225 320 -87 463 42 44 94 74 148 85 28 6 312 8 347 3z m983
-1182 c85 -32 151 -105 176 -194 40 -141 -25 -280 -162 -343 -51 -24 -65 -26
-220 -27 -91 -1 -171 0 -177 3 -10 3 -13 71 -13 294 l0 289 174 -2 c140 -2
183 -6 222 -20z"/>
</g>
</svg>
